<svg xmlns="http://www.w3.org/2000/svg" width="14" height="14" viewBox="0 0 14 14"><defs><style>.a{fill:#141420;}</style></defs><g transform="translate(-479.141 -1134.341)"><path class="a" d="M595.994,1140.333c.07.061.1.049.161,0,1.03-.9,2.065-1.791,3.092-2.69a1.743,1.743,0,0,0,.609-1.09,3.417,3.417,0,0,1,0-.533,1.819,1.819,0,0,0-.85-1.277,2.5,2.5,0,0,0-2.833.089c-.057.043-.093.083-.18.016a2.394,2.394,0,0,0-2.139-.414,1.845,1.845,0,0,0-.929,3.233C593.941,1138.559,594.973,1139.442,595.994,1140.333Z" transform="translate(-109.933)"/><path class="a" d="M599.367,1384.78c-1.053-.931-2.119-1.851-3.177-2.777-.069-.061-.1-.046-.164.007-1.019.887-2.042,1.771-3.059,2.66a1.726,1.726,0,0,0-.651,1.559,1.888,1.888,0,0,0,1.391,1.623,2.425,2.425,0,0,0,2.324-.359c.074-.054.109-.042.17.006a2.417,2.417,0,0,0,1.908.458,2.049,2.049,0,0,0,1.786-1.636c-.01-.215,0-.432-.029-.646A1.513,1.513,0,0,0,599.367,1384.78Z" transform="translate(-109.974 -239.658)"/><path class="a" d="M485.124,1251.3c.069-.079.057-.114-.005-.185-.885-1.013-1.763-2.032-2.651-3.042a1.714,1.714,0,0,0-1.778-.615,2.33,2.33,0,0,0-1.047,3.669.111.111,0,0,1,0,.169,2.334,2.334,0,0,0-.493,1.454,2.132,2.132,0,0,0,1.667,2.237,1.876,1.876,0,0,1,.4-.005c.1-.007.2-.065.3-.029a1.9,1.9,0,0,0,.976-.633Q483.807,1252.806,485.124,1251.3Z" transform="translate(0 -109.874)"/><path class="a" d="M731.579,1251.092c-.065-.09-.057-.125,0-.2a1.907,1.907,0,0,0,.373-.747c-.021-.038,0-.073.006-.108a2.25,2.25,0,0,0-.01-1.253.152.152,0,0,1,0-.095,1.817,1.817,0,0,0-3.084-.947c-.968,1.019-1.87,2.122-2.8,3.185-.061.07-.03.1.012.146q1.33,1.527,2.659,3.055a1.778,1.778,0,0,0,.969.609c.224.031.449.02.674.032a1.9,1.9,0,0,0,1.544-1.368A2.419,2.419,0,0,0,731.579,1251.092Z" transform="translate(-238.933 -109.659)"/></g></svg>