<svg xmlns="http://www.w3.org/2000/svg" xmlns:xlink="http://www.w3.org/1999/xlink" width="14" height="15.264" viewBox="0 0 14 15.264"><defs><style>.a{fill:#141420;}.b{clip-path:url(#a);}</style><clipPath id="a"><rect class="a" width="14" height="15.264"/></clipPath></defs><g transform="translate(-158 -861)"><g transform="translate(158 861)"><g class="b"><path class="a" d="M162.932,872.426a3.858,3.858,0,0,0,4.893-.9c1.5-1.925-.146-4.674-1.65-3.391,1.064,1.026-.257,2.932-2.163,2.236a1.787,1.787,0,0,1-.991-2.071,3.463,3.463,0,0,1,2.822-2.713,4.586,4.586,0,0,1,5.9,3.556c1.741,6.4-6.8,9.2-11.216,5.573-3.556-2.913-3.078-8.338-.329-11.216,3.575-3.721,9.842-3.024,10.978,1.32a6.929,6.929,0,0,0-7.679-.659c-2.786,1.647-3.667,6.248-.567,8.265Zm0,0" transform="translate(-158 -861.086)"/></g></g></g></svg>