<svg xmlns="http://www.w3.org/2000/svg" xmlns:xlink="http://www.w3.org/1999/xlink" width="13.985" height="14" viewBox="0 0 13.985 14"><defs><style>.a{fill:#141420;}.b{clip-path:url(#a);}</style><clipPath id="a"><rect class="a" width="13.985" height="14"/></clipPath></defs><g transform="translate(-136 -705)"><g transform="translate(136 705)"><g class="b" transform="translate(0 0)"><path class="a" d="M142.9,714.283l3.7,3.144-.437,2.067-3.261-2.329-3.261,2.329-.437-2.1Zm4.862-5.5,2.1.437-2.329,3.29,2.329,3.261-2.1.466-3.144-3.726Zm-9.782,0,3.144,3.726-3.144,3.7-2.1-.437,2.329-3.261-2.329-3.261Zm4.891,2.853a.858.858,0,0,1,.873.873.869.869,0,0,1-.437.757.928.928,0,0,1-.873,0,.869.869,0,0,1-.437-.757.858.858,0,0,1,.873-.873Zm3.29-6.114.437,2.1-3.7,3.144-3.7-3.144.437-2.1,3.261,2.329Zm0,0" transform="translate(-135.882 -705.511)"/></g></g></g></svg>