<svg xmlns="http://www.w3.org/2000/svg" width="68" height="68" viewBox="0 0 68 68"><defs><style>.a{fill:#002990;}.b{opacity:0.6;}.c{opacity:0.3;}.d{opacity:0.7;}.e{opacity:0.4;}.f{opacity:0.8;}.g{opacity:0.5;}.h{opacity:0.9;}</style></defs><g transform="translate(-9066 13538)"><rect class="a" width="6" height="16" rx="3" transform="translate(9097 -13538)"/><g class="b" transform="translate(0 52)"><rect class="a" width="6" height="16" rx="3" transform="translate(9097 -13538)"/></g><g class="c" transform="translate(-6883.441 -10389.901) rotate(45)"><rect class="a" width="6" height="16" rx="3" transform="translate(9097 -13538)"/></g><g class="d" transform="translate(-6920.211 -10353.132) rotate(45)"><rect class="a" width="6" height="16" rx="3" transform="translate(9097 -13538)"/></g><g class="e" transform="translate(-4404 -22604) rotate(90)"><rect class="a" width="6" height="16" rx="3" transform="translate(9097 -13538)"/></g><g class="f" transform="translate(-4456 -22604) rotate(90)"><rect class="a" width="6" height="16" rx="3" transform="translate(9097 -13538)"/></g><g class="g" transform="translate(5985.902 -29487.441) rotate(135)"><rect class="a" width="6" height="16" rx="3" transform="translate(9097 -13538)"/></g><g class="h" transform="translate(5949.132 -29524.211) rotate(135)"><rect class="a" width="6" height="16" rx="3" transform="translate(9097 -13538)"/></g></g></svg>