<svg xmlns="http://www.w3.org/2000/svg" width="16" height="14.617" viewBox="0 0 16 14.617"><defs><style>.a{fill:#fff;}</style></defs><path class="a" d="M26.113,12.239a1.189,1.189,0,1,1-1.189,1.189A1.189,1.189,0,0,1,26.113,12.239Zm7.132,0a1.189,1.189,0,1,1-1.189,1.189A1.189,1.189,0,0,1,33.245,12.239ZM23.234,0V.006h.073A.487.487,0,0,1,23.8.423l.292,2.053h11.9a.487.487,0,0,1,.481.567l-1.192,7.235a.974.974,0,0,1-.961.816H24.731a.537.537,0,0,1-.075-.005h-.088a.487.487,0,0,1-.488-.418L23,3.112l-.1-.636h.014l-.184-1.288H20.48V0Zm4.715,4.855h-.892v3.86h.892Zm4.458,0h-.892v3.86h.892Z" transform="translate(-20.48)"/></svg>