<svg xmlns="http://www.w3.org/2000/svg" width="11.797" height="15.602" viewBox="0 0 11.797 15.602"><defs><style>.a{fill:#141420;stroke:rgba(0,0,0,0);stroke-miterlimit:10;}</style></defs><g transform="translate(155.919 -1047.494)"><path class="a" d="M1.581,12.43c-.033-.032-.064-.066-.1-.1a4.455,4.455,0,0,0,.9.077A4.409,4.409,0,0,0,6.743,7.948,4.361,4.361,0,0,0,5.537,5l.014.023c-.047-.055-.094-.109-.146-.161l-.631-.626v0A2.666,2.666,0,0,1,5.4,0a2.664,2.664,0,0,0,.6,2.891,2.683,2.683,0,0,0,1.167.68A5.548,5.548,0,0,1,9.216,4.855h0a5.33,5.33,0,0,1,0,7.576,5.427,5.427,0,0,1-7.634,0ZM.4,10.667A5.328,5.328,0,0,1,1.533,4.9a2.663,2.663,0,0,0,.048,3.738,2.714,2.714,0,0,0,3.816,0l0,0a2.658,2.658,0,0,0,.768-1.579s0,.009,0,.014a3.966,3.966,0,0,1-3.921,4.012H2.187A3.99,3.99,0,0,1,.4,10.667Z" transform="translate(-155.419 1048.596)"/></g></svg>